# xmcd
#
# Track frame offsets: 
#        150
#        14777
#        30680
#        41820
#        56002
#        67902
#        82962
#        94355
#        105102
#        119062
#        131757
#        148545
#
# Disc length: 2156 seconds
#
# Revision: 4
# Processed by: cddbd v1.5.2PL0 Copyright (c) Steve Scherf et al.
# Submitted via: ExactAudioCopy v0.99pb5
#
DISCID=a8086a0c
DTITLE=k.d. Lang - Shadowland
DYEAR=1988
DGENRE=Country
TTITLE0=Western Stars
TTITLE1=Lock, Stock and Teardrops
TTITLE2=Sugar Moon
TTITLE3=I Wish I Didn't Love You So
TTITLE4=(Waltz Me) Once Again Around the Dance Floor
TTITLE5=Black Coffee
TTITLE6=Shadowland
TTITLE7=Don't Let the Stars Get in Your Eyes
TTITLE8=Tears Don't Care Who Cries Them
TTITLE9=I'm Down to My Last Cigarette
TTITLE10=Busy Being Blue
TTITLE11=Honky Tonk Angels' Medley
EXTD=
EXTT0=
EXTT1=
EXTT2=
EXTT3=
EXTT4=
EXTT5=
EXTT6=
EXTT7=
EXTT8=
EXTT9=
EXTT10=
EXTT11=
PLAYORDER=
